HIERARCHY
ROOT Hips
{
    OFFSET   0.000000   0.000000   0.000000
    CHANNELS 6 Xposition Yposition Zposition Zrotation Xrotation Yrotation
    JOINT Chest
    {
        OFFSET   0.000000   8.007230   0.000000
        CHANNELS 3 Zrotation Xrotation Yrotation
        JOINT Chest2
        {
            OFFSET   0.000000  22.077100   0.000000
            CHANNELS 3 Zrotation Xrotation Yrotation
            JOINT Neck
            {
                OFFSET   0.000000  23.254800   0.000000
                CHANNELS 3 Zrotation Xrotation Yrotation
                JOINT Head
                {
                    OFFSET   0.000010  14.370000   1.956600
                    CHANNELS 3 Zrotation Xrotation Yrotation
                    End Site
                    {
                        OFFSET   0.000000  19.566000   0.000000
                    }
                }
            }
            JOINT LeftCollar
            {
                OFFSET   3.911900  19.017000  -0.467062
                CHANNELS 3 Zrotation Xrotation Yrotation
                JOINT LeftShoulder
                {
                    OFFSET  10.383700   0.000000   0.000000
                    CHANNELS 3 Zrotation Xrotation Yrotation
                    JOINT LeftElbow
                    {
                        OFFSET  26.662100   0.001193   0.000835
                        CHANNELS 3 Zrotation Xrotation Yrotation
                        JOINT LeftWrist
                        {
                            OFFSET  28.869000  -0.000058  -0.000075
                            CHANNELS 3 Zrotation Xrotation Yrotation
                            JOINT LeftFinger0
                            {
                                OFFSET   2.044660  -2.323460   3.252850
                                CHANNELS 3 Zrotation Xrotation Yrotation
                                JOINT LeftFinger01
                                {
                                    OFFSET   3.088130   0.000000   0.000000
                                    CHANNELS 3 Zrotation Xrotation Yrotation
                                    JOINT LeftFinger02
                                    {
                                        OFFSET   2.639450   0.000000   0.000000
                                        CHANNELS 3 Zrotation Xrotation Yrotation
                                        End Site
                                        {
                                            OFFSET   2.582190   0.000000   0.000000
                                        }
                                    }
                                }
                            }
                            JOINT LeftFinger1
                            {
                                OFFSET   8.364480   0.000000   3.252850
                                CHANNELS 3 Zrotation Xrotation Yrotation
                                JOINT LeftFinger11
                                {
                                    OFFSET   4.646920   0.000000   0.000000
                                    CHANNELS 3 Zrotation Xrotation Yrotation
                                    JOINT LeftFinger12
                                    {
                                        OFFSET   2.323460   0.000000   0.000000
                                        CHANNELS 3 Zrotation Xrotation Yrotation
                                        End Site
                                        {
                                            OFFSET   2.273050   0.000000   0.000000
                                        }
                                    }
                                }
                            }
                            JOINT LeftFinger2
                            {
                                OFFSET   8.364490   0.000016   1.078090
                                CHANNELS 3 Zrotation Xrotation Yrotation
                                JOINT LeftFinger21
                                {
                                    OFFSET   5.111620   0.000000   0.000000
                                    CHANNELS 3 Zrotation Xrotation Yrotation
                                    JOINT LeftFinger22
                                    {
                                        OFFSET   2.788150   0.000012   0.000000
                                        CHANNELS 3 Zrotation Xrotation Yrotation
                                        End Site
                                        {
                                            OFFSET   2.727660   0.000000   0.000000
                                        }
                                    }
                                }
                            }
                            JOINT LeftFinger3
                            {
                                OFFSET   7.899780   0.000014  -1.078090
                                CHANNELS 3 Zrotation Xrotation Yrotation
                                JOINT LeftFinger31
                                {
                                    OFFSET   4.646930   0.000000   0.000000
                                    CHANNELS 3 Zrotation Xrotation Yrotation
                                    JOINT LeftFinger32
                                    {
                                        OFFSET   2.323470   0.000000   0.000000
                                        CHANNELS 3 Zrotation Xrotation Yrotation
                                        End Site
                                        {
                                            OFFSET   2.273050   0.000000   0.000000
                                        }
                                    }
                                }
                            }
                            JOINT LeftFinger4
                            {
                                OFFSET   7.435090   0.000000  -3.252850
                                CHANNELS 3 Zrotation Xrotation Yrotation
                                JOINT LeftFinger41
                                {
                                    OFFSET   3.717550   0.000000   0.000000
                                    CHANNELS 3 Zrotation Xrotation Yrotation
                                    JOINT LeftFinger42
                                    {
                                        OFFSET   1.858770   0.000000   0.000000
                                        CHANNELS 3 Zrotation Xrotation Yrotation
                                        End Site
                                        {
                                            OFFSET   1.818440   0.000000   0.000000
                                        }
                                    }
                                }
                            }
                        }
                    }
                }
            }
            JOINT RightCollar
            {
                OFFSET  -3.911900  19.017000  -0.467063
                CHANNELS 3 Zrotation Xrotation Yrotation
                JOINT RightShoulder
                {
                    OFFSET -10.383700   0.000023   0.000000
                    CHANNELS 3 Zrotation Xrotation Yrotation
                    JOINT RightElbow
                    {
                        OFFSET -26.662100   0.001246   0.001011
                        CHANNELS 3 Zrotation Xrotation Yrotation
                        JOINT RightWrist
                        {
                            OFFSET -28.869000  -0.000026  -0.000078
                            CHANNELS 3 Zrotation Xrotation Yrotation
                            JOINT RightFinger0
                            {
                                OFFSET  -2.044660  -2.323490   3.252850
                                CHANNELS 3 Zrotation Xrotation Yrotation
                                JOINT RightFinger01
                                {
                                    OFFSET  -3.088130   0.000000   0.000000
                                    CHANNELS 3 Zrotation Xrotation Yrotation
                                    JOINT RightFinger02
                                    {
                                        OFFSET  -2.639460   0.000000   0.000000
                                        CHANNELS 3 Zrotation Xrotation Yrotation
                                        End Site
                                        {
                                            OFFSET  -2.582190   0.000000   0.000000
                                        }
                                    }
                                }
                            }
                            JOINT RightFinger1
                            {
                                OFFSET  -8.364480   0.000000   3.252850
                                CHANNELS 3 Zrotation Xrotation Yrotation
                                JOINT RightFinger11
                                {
                                    OFFSET  -4.646920   0.000000   0.000000
                                    CHANNELS 3 Zrotation Xrotation Yrotation
                                    JOINT RightFinger12
                                    {
                                        OFFSET  -2.323470   0.000000   0.000000
                                        CHANNELS 3 Zrotation Xrotation Yrotation
                                        End Site
                                        {
                                            OFFSET  -2.273050   0.000000   0.000000
                                        }
                                    }
                                }
                            }
                            JOINT RightFinger2
                            {
                                OFFSET  -8.364480   0.000000   1.078090
                                CHANNELS 3 Zrotation Xrotation Yrotation
                                JOINT RightFinger21
                                {
                                    OFFSET  -5.111620   0.000000   0.000000
                                    CHANNELS 3 Zrotation Xrotation Yrotation
                                    JOINT RightFinger22
                                    {
                                        OFFSET  -2.788160   0.000000   0.000000
                                        CHANNELS 3 Zrotation Xrotation Yrotation
                                        End Site
                                        {
                                            OFFSET  -2.727660   0.000000   0.000000
                                        }
                                    }
                                }
                            }
                            JOINT RightFinger3
                            {
                                OFFSET  -7.899780   0.000000  -1.078090
                                CHANNELS 3 Zrotation Xrotation Yrotation
                                JOINT RightFinger31
                                {
                                    OFFSET  -4.646930   0.000000   0.000000
                                    CHANNELS 3 Zrotation Xrotation Yrotation
                                    JOINT RightFinger32
                                    {
                                        OFFSET  -2.323470   0.000000   0.000000
                                        CHANNELS 3 Zrotation Xrotation Yrotation
                                        End Site
                                        {
                                            OFFSET  -2.273050   0.000000   0.000000
                                        }
                                    }
                                }
                            }
                            JOINT RightFinger4
                            {
                                OFFSET  -7.435090   0.000000  -3.252850
                                CHANNELS 3 Zrotation Xrotation Yrotation
                                JOINT RightFinger41
                                {
                                    OFFSET  -3.717550   0.000000   0.000000
                                    CHANNELS 3 Zrotation Xrotation Yrotation
                                    JOINT RightFinger42
                                    {
                                        OFFSET  -1.858760   0.000000   0.000000
                                        CHANNELS 3 Zrotation Xrotation Yrotation
                                        End Site
                                        {
                                            OFFSET  -1.818440   0.000000   0.000000
                                        }
                                    }
                                }
                            }
                        }
                    }
                }
            }
        }
    }
    JOINT LeftHip
    {
        OFFSET   9.783010   0.000000   0.000000
        CHANNELS 3 Zrotation Xrotation Yrotation
        JOINT LeftKnee
        {
            OFFSET   0.000073 -41.789100   0.001749
            CHANNELS 3 Zrotation Xrotation Yrotation
            JOINT LeftAnkle
            {
                OFFSET   0.000111 -41.133200  -0.000179
                CHANNELS 3 Zrotation Xrotation Yrotation
                JOINT LeftToe
                {
                    OFFSET   0.000000  -6.358960  14.674500
                    CHANNELS 3 Zrotation Xrotation Yrotation
                    End Site
                    {
                        OFFSET   0.000000   0.000000   3.913200
                    }
                }
            }
        }
    }
    JOINT RightHip
    {
        OFFSET  -9.783010   0.000000   0.000000
        CHANNELS 3 Zrotation Xrotation Yrotation
        JOINT RightKnee
        {
            OFFSET   0.000424 -41.789200   0.005205
            CHANNELS 3 Zrotation Xrotation Yrotation
            JOINT RightAnkle
            {
                OFFSET   0.000000 -41.133200  -0.000155
                CHANNELS 3 Zrotation Xrotation Yrotation
                JOINT RightToe
                {
                    OFFSET   0.000000  -6.358960  14.674500
                    CHANNELS 3 Zrotation Xrotation Yrotation
                    End Site
                    {
                        OFFSET   0.000000   0.000000   3.913200
                    }
                }
            }
        }
    }
}
MOTION
Frames: 6
Frame Time:   0.016667
  1.947170  89.441500  -0.902754  -7.223300 -14.111400 -10.470600  -0.151816  15.322600   1.684630  -0.836061  30.633400   3.614430   2.425640  -1.462100   0.061172   3.988940  -2.948650  18.007300   0.077501  -5.301190   1.695890 -64.019800  26.110200 -15.366900  -5.937490 -12.601000 -17.892000  14.959400  -1.831710  -0.244736  42.675000  36.437100 -65.155400 -29.989600  -0.002886   0.002399  -9.994780  -0.002591  -0.001510 -32.239000   5.975970  -9.377150 -26.778800   0.013289  -0.001372 -18.745200   0.006908   0.000902 -28.784400  -1.072670   1.951860 -42.839500   0.010237   0.001578 -28.531100   0.001206   0.012217 -28.783500  -1.072770   1.951810 -43.067700   0.010102   0.000636 -28.683100   0.003313   0.010697 -34.756800  -1.270110   1.829590 -52.172200  -0.007988   0.003192 -34.742300  -0.000247  -0.003198   3.531010  -6.327330   8.424150  46.562800 -11.040300  53.819900 -46.660700 -39.883900  70.004500 -55.644200  24.873700  30.027800 -40.780800  40.326600  63.823400  37.867900   0.000301  -0.000228  14.685700   0.002389   0.002128  86.002300   4.987050   0.348119  70.377800   0.006221   0.006680  52.783400   0.002308  -0.000961  88.999900   0.000081   0.009895  89.186700   0.001314   0.000240  66.890100   0.004471  -0.002930  89.002500  -4.998950  -0.087737  96.541800   0.000517   0.002579  72.406300   0.008480  -0.006824  88.983600 -10.002500  -0.182242 110.000000  -0.005835   0.001075  80.000000   0.001041   0.002982   2.918230  18.815400   1.797540   0.512622   0.075682   9.608840   0.298349  -4.439930   1.545380  -0.000000   0.000000  -0.000000   3.816540  14.033500  -3.986480  -1.469650   4.244390 -11.593200   1.727870  -2.623690   9.013840  -0.000000   0.000000   0.000000
  1.969990  89.440900  -0.880783  -7.191520 -14.087900 -10.440600  -0.174938  15.299100   1.673460  -0.883720  30.585600   3.602190   2.453640  -1.494810   0.062923   4.038650  -3.014160  17.927100   0.058556  -5.304500   1.740100 -64.057200  25.996400 -15.301600  -5.877850 -12.545400 -17.897900  15.011600  -1.919420  -0.211739  42.672000  36.431900 -65.110500 -29.989500  -0.002883   0.002374  -9.994750  -0.002592  -0.001507 -32.230500   5.951080  -9.338630 -26.768400   0.013296  -0.001314 -18.737900   0.006849   0.000954 -28.783800  -1.080360   1.965870 -42.833900   0.010268   0.001629 -28.527300   0.001159   0.012213 -28.783000  -1.080430   1.965820 -43.071500   0.010139   0.000694 -28.685600   0.003272   0.010696 -34.761400  -1.279340   1.842650 -52.173000  -0.007973   0.003189 -34.747300  -0.000219  -0.003155   3.527670  -6.260580   8.475590  46.610200 -11.231400  53.683100 -46.581100 -39.909000  70.411300 -55.791400  24.751500  29.960700 -40.813000  40.343400  63.837900  37.868500   0.000240  -0.000219  14.691000   0.002335   0.002125  86.000300   4.987090   0.348295  70.376200   0.006253   0.006663  52.782200   0.002428  -0.000956  88.999900   0.000000   0.009966  89.180600   0.001264   0.000170  66.885500   0.004468  -0.002891  89.002600  -4.998900  -0.087737  96.679000   0.000499   0.002699  72.509200   0.008546  -0.006754  88.983500 -10.002500  -0.182367 110.000000  -0.005800   0.001134  80.000000   0.001057   0.002982   2.873930  18.781500   1.795160   0.522470   0.084559   9.618280   0.301073  -4.438290   1.527570   0.000000   0.000000   0.000000   3.779920  14.017000  -3.964410  -1.469000   4.248250 -11.605000   1.742690  -2.638720   8.983770   0.000000   0.000000   0.000000
  1.992910  89.440300  -0.858238  -7.155680 -14.048100 -10.402300  -0.191006  15.260100   1.641520  -0.908327  30.507300   3.541940   2.453150  -1.518020   0.063904   4.044350  -3.060840  17.877800   0.028456  -5.254140   1.792760 -64.125000  25.835800 -15.221500  -5.814500 -12.491100 -17.903600  15.079300  -2.017380  -0.168909  42.666300  36.457400 -65.128500 -30.024700  -0.002893   0.002348 -10.012400  -0.002586  -0.001509 -32.235200   5.953820  -9.341080 -26.772600   0.013308  -0.001257 -18.740900   0.006791   0.001007 -28.782700  -1.096150   1.994610 -42.874200   0.010295   0.001683 -28.554200   0.001112   0.012205 -28.770900  -1.095700   1.994830 -43.099400   0.010178   0.000757 -28.704100   0.003228   0.010700 -34.780800  -1.298730   1.869100 -52.200200  -0.007961   0.003184 -34.767300  -0.000194  -0.003110   3.522840  -6.187360   8.514630  46.537000 -11.283900  53.611800 -46.636300 -39.965700  70.572100 -55.946800  24.674300  29.943400 -40.821200  40.360100  63.909400  37.881000   0.000181  -0.000126  14.700200   0.002280   0.002113  86.002400   4.987110   0.348124  70.377900   0.006305   0.006660  52.783500   0.002550  -0.000951  89.000000  -0.000050   0.010026  89.171700   0.001221   0.000139  66.878800   0.004472  -0.002850  89.002700  -4.998860  -0.087739  96.835500   0.000491   0.002804  72.626600   0.008622  -0.006668  88.983500 -10.002600  -0.182481 110.000000  -0.005766   0.001201  80.000000   0.001067   0.002985   2.839700  18.759900   1.808060   0.520761   0.043555   9.602880   0.310413  -4.419350   1.506020   0.000000   0.000000   0.000000   3.746920  13.989100  -3.930380  -1.468910   4.244230 -11.631700   1.757100  -2.653190   8.943530   0.000000   0.000000   0.000000
  2.013760  89.439800  -0.835578  -7.125740 -14.001100 -10.361100  -0.202956  15.212800   1.599890  -0.916712  30.412900   3.451910   2.449410  -1.536560   0.064617   4.032110  -3.098320  17.837200  -0.005590  -5.170380   1.840420 -64.204300  25.662400 -15.132200  -5.764170 -12.438200 -17.905300  15.122000  -2.075400  -0.123567  42.654600  36.499100 -65.185700 -30.081600  -0.002903   0.002320 -10.040800  -0.002580  -0.001511 -32.256900   5.963770  -9.348540 -26.791300   0.013320  -0.001202 -18.754000   0.006733   0.001060 -28.781600  -1.111520   2.022590 -42.952100   0.010322   0.001738 -28.606100   0.001066   0.012196 -28.758800  -1.110750   2.022990 -43.144900   0.010217   0.000820 -28.734400   0.003185   0.010705 -34.809200  -1.317860   1.894680 -52.246500  -0.007947   0.003178 -34.796200  -0.000169  -0.003064   3.517230  -6.123270   8.535270  46.452200 -11.293600  53.593400 -46.703600 -39.985100  70.622100 -56.087100  24.617400  29.944200 -40.782300  40.361600  64.000700  37.910800   0.000121   0.000000  14.717600   0.002227   0.002104  86.017400   4.987120   0.346926  70.390100   0.006357   0.006657  52.792700   0.002672  -0.000945  89.000000  -0.000094   0.010085  89.168000   0.001178   0.000112  66.875900   0.004477  -0.002814  89.002900  -4.998820  -0.087744  97.009800   0.000488   0.002908  72.757300   0.008700  -0.006580  88.983500 -10.002700  -0.182592 110.000000  -0.005730   0.001269  80.000000   0.001074   0.002989   2.819100  18.729100   1.832180   0.513133   0.002548   9.571050   0.319346  -4.402920   1.483520  -0.000000   0.000000   0.000000   3.723840  13.956900  -3.894900  -1.469110   4.235660 -11.660300   1.771770  -2.666170   8.901360   0.000000   0.000000   0.000000
  2.028860  89.439400  -0.812965  -7.107700 -13.952600 -10.321800  -0.210958  15.163800   1.557590  -0.918660  30.315300   3.363100   2.428040  -1.551060   0.065387   3.994160  -3.128020  17.787100  -0.034778  -5.100760   1.862350 -64.279000  25.514400 -15.037000  -5.738970 -12.395300 -17.881800  15.123600  -2.074130  -0.074752  42.638900  36.543300 -65.301000 -30.132900  -0.002893   0.002286 -10.066400  -0.002587  -0.001508 -32.307600   5.985520  -9.363920 -26.834900   0.013326  -0.001153 -18.784500   0.006671   0.001113 -28.781100  -1.117350   2.033200 -43.056300   0.010353   0.001796 -28.675500   0.001019   0.012189 -28.777300  -1.117450   2.033140 -43.191100   0.010254   0.000882 -28.765200   0.003144   0.010702 -34.844400  -1.325920   1.903800 -52.299700  -0.007931   0.003173 -34.831700  -0.000144  -0.003020   3.513030  -6.084640   8.534160  46.245000 -11.205100  53.598300 -46.857800 -40.024200  70.414400 -56.176400  24.581000  29.981500 -40.716400  40.334100  64.066100  37.960300   0.000060   0.000077  14.753500   0.002181   0.002114  86.055100   4.987150   0.343745  70.420800   0.006392   0.006649  52.815700   0.002788  -0.000936  89.000000  -0.000155   0.010149  89.198500   0.001130   0.000061  66.898800   0.004481  -0.002786  89.003000  -4.998770  -0.087751  97.195800   0.000487   0.003025  72.896800   0.008773  -0.006501  88.983500 -10.002800  -0.182703 110.000000  -0.005688   0.001335  80.000000   0.001081   0.002983   2.826820  18.664100   1.859340   0.493766   0.045382   9.528200   0.321121  -4.435010   1.461290  -0.000000   0.000000   0.000000   3.714610  13.926400  -3.869630  -1.467900   4.223090 -11.680600   1.787940  -2.675720   8.864100   0.000000   0.000000  -0.000000
  2.041240  89.439100  -0.791664  -7.094270 -13.904600 -10.292800  -0.217874  15.114100   1.519680  -0.919719  30.216000   3.283280   2.398970  -1.566100   0.066141   3.949520  -3.158820  17.721200  -0.059509  -5.036810   1.868190 -64.345000  25.397000 -14.941600  -5.717060 -12.361900 -17.837000  15.123200  -2.065240  -0.046583  42.619000  36.568500 -65.416800 -30.162500  -0.002884   0.002251 -10.081200  -0.002593  -0.001506 -32.366000   6.008720  -9.378620 -26.884900   0.013332  -0.001102 -18.819400   0.006609   0.001166 -28.781000  -1.118420   2.035160 -43.134100   0.010387   0.001853 -28.727300   0.000973   0.012180 -28.805700  -1.119290   2.034690 -43.238400   0.010292   0.000942 -28.796800   0.003104   0.010699 -34.866500  -1.327920   1.905120 -52.332900  -0.007914   0.003169 -34.853800  -0.000111  -0.002975   3.511350  -6.069790   8.530550  45.955600 -11.057000  53.603800 -47.088900 -40.061700  70.025000 -56.213000  24.567600  30.012400 -40.645000  40.301300  64.132500  38.010600   0.000000   0.000136  14.789500   0.002136   0.002128  86.125500   4.987190   0.337612  70.478300   0.006426   0.006637  52.858700   0.002906  -0.000930  89.000000  -0.000220   0.010217  89.272300   0.001084   0.000000  66.954200   0.004488  -0.002761  89.003100  -4.998730  -0.087758  97.358900   0.000487   0.003142  73.019100   0.008844  -0.006427  88.983500 -10.002800  -0.182816 110.000000  -0.005643   0.001399  80.000000   0.001084   0.002972   2.842250  18.601600   1.883700   0.474876   0.088227   9.486770   0.323303  -4.478530   1.448920   0.000000   0.000000   0.000000   3.707770  13.896500  -3.851760  -1.463700   4.210750 -11.690300   1.802400  -2.683390   8.832090   0.000000   0.000000   0.000000
